<svg width="687" height="687" viewBox="0 0 687 687" fill="none" xmlns="http://www.w3.org/2000/svg">
<path d="M490.414 327.072L628.254 189.259C630.718 186.785 632.16 183.54 632.488 180.097C635.796 179.769 639.03 178.404 641.561 175.863C677.572 139.852 677.572 81.2586 641.561 45.248C624.119 27.7893 600.925 18.18 576.249 18.18C551.572 18.18 528.38 27.7945 510.937 45.248C508.349 47.8365 506.979 51.1491 506.687 54.524C503.313 54.8365 500.036 56.1437 497.594 58.5917L359.78 196.432L167.554 4.20505C161.955 -1.40948 152.032 -1.39388 146.428 4.20505L4.375 146.312C-1.45833 152.145 -1.45833 161.598 4.375 167.426L196.562 359.653L71.963 484.257C70.4318 485.788 69.2547 487.627 68.5151 489.653L22.4845 614.601C13.1511 639.861 21.6043 653.486 27.4741 659.356C31.4533 663.345 39.0001 668.517 51.3434 668.517C57.1819 668.517 64.0986 667.361 72.2034 664.356L196.859 618.434C198.927 617.726 200.875 616.544 202.526 614.893L202.542 614.877L327.178 490.268L519.378 682.468C522.18 685.27 525.977 686.843 529.935 686.843C533.899 686.843 537.701 685.27 540.503 682.468L682.569 540.361C688.403 534.528 688.403 525.074 682.569 519.246L490.414 327.072ZM576.247 48.0585C592.935 48.0585 608.633 54.5637 620.435 66.3759C644.799 90.7452 644.799 130.387 620.435 154.761C619.467 155.73 618.711 156.829 618.071 157.969L528.852 68.7401C529.993 68.0891 531.092 67.3338 532.06 66.3652C543.863 54.563 559.555 48.0585 576.248 48.0585H576.247ZM184.247 305.085L222.669 266.653C228.502 260.82 228.502 251.361 222.669 245.528C216.835 239.705 207.382 239.695 201.543 245.528L163.127 283.96L111.362 232.184L149.763 193.783C155.597 187.949 155.597 178.496 149.763 172.668C143.93 166.835 134.471 166.835 128.649 172.668L90.2474 211.069L36.0541 156.867L156.997 35.8825L338.663 217.549L217.69 338.528L184.247 305.085ZM191.992 583.205L142.862 534.065C137.039 528.232 127.57 528.232 121.747 534.065C115.914 539.899 115.914 549.352 121.747 555.18L164.935 598.373L61.8775 636.343C53.3306 639.494 49.1639 638.593 48.6745 638.322C48.2578 637.681 47.3463 633.514 50.513 624.942V624.926L95.409 503.057L227.966 370.499C228.065 370.411 228.175 370.343 228.274 370.255C228.373 370.166 228.43 370.046 228.518 369.947L369.718 228.734C369.937 228.541 370.182 228.395 370.39 228.182C370.599 227.974 370.739 227.729 370.942 227.51L508.142 90.2967L596.554 178.718L317.141 458.105C316.964 458.271 316.75 458.386 316.573 458.568C316.396 458.745 316.276 458.948 316.11 459.131L191.992 583.205ZM529.939 650.793L475.71 596.569L514.131 558.148C519.964 552.315 519.964 542.861 514.131 537.033C508.308 531.2 498.839 531.2 493.016 537.033L454.595 575.455L402.846 523.695L441.278 485.263C447.111 479.429 447.111 469.976 441.278 464.148C435.455 458.315 425.986 458.315 420.163 464.148L381.731 502.58L348.304 469.159L469.294 348.189L650.893 529.803L529.939 650.793Z" fill="black"/>
</svg>
